# xmcd
#
# Track frame offsets: 
#        187
#        16910
#        40002
#        61555
#        84645
#        113115
#        142322
#        177000
#        201300
#        220245
#        249722
#
# Disc length: 3735 seconds
#
# Revision: 5
# Processed by: cddbd v1.5.2PL0 Copyright (c) Steve Scherf et al.
# Submitted via: ExactAudioCopy v1.3
#
DISCID=970e950b
DTITLE=Steelheart - Steelheart [MVCM-26]
DYEAR=1990
DGENRE=Hard Rock
TTITLE0=Love Ain't Easy
TTITLE1=Can't Stop Me Lovin' You
TTITLE2=Like Never Before
TTITLE3=I'll Never Let You Go
TTITLE4=Everybody Loves Eileen
TTITLE5=She's Gone (Live)
TTITLE6=Sheila
TTITLE7=Gimme Gimme
TTITLE8=Rock'n Roll (I Just Wanna)
TTITLE9=She's Gone
TTITLE10=Down N' Dirty
EXTD=YEAR: 1991
EXTT0=
EXTT1=
EXTT2=
EXTT3=
EXTT4=
EXTT5=
EXTT6=
EXTT7=
EXTT8=
EXTT9=
EXTT10=
PLAYORDER=
